<?xml version="1.0" encoding="utf-8"?>
<!-- Generator: Adobe Illustrator 27.5.0, SVG Export Plug-In . SVG Version: 6.00 Build 0)  -->
<svg version="1.1" id="_x3C_Layer_x3E_" xmlns="http://www.w3.org/2000/svg" xmlns:xlink="http://www.w3.org/1999/xlink" x="0px"
	 y="0px" viewBox="0 0 2240 2240" style="enable-background:new 0 0 2240 2240;" xml:space="preserve">
<rect transform="matrix(-1 -1.224647e-16 1.224647e-16 -1 2240 2240)" style="fill:#FFFFFF;" width="2240" height="2240"/>
<radialGradient id="SVGID_1_" cx="981.8434" cy="1083.3423" r="923.0825" gradientUnits="userSpaceOnUse">
	<stop  offset="0" style="stop-color:#4B20DD"/>
	<stop  offset="0.1339" style="stop-color:#5221DE"/>
	<stop  offset="0.3228" style="stop-color:#6423DF"/>
	<stop  offset="0.5442" style="stop-color:#8227E2"/>
	<stop  offset="0.7882" style="stop-color:#AC2CE5"/>
	<stop  offset="1" style="stop-color:#D631E9"/>
</radialGradient>
<path style="fill:url(#SVGID_1_);" d="M620.393,937.731c-754.606,447.119-88.854,1074.585,334.834,790.617
	c270.763-181.47,560.396-109.624,763.488-315.992c203.092-206.369,64.535-529.78-76.318-660.807
	c-140.853-131.027-74.952-362.943-402.504-397.687C949.587,323.067,840.857,807.1,620.393,937.731z"/>
<radialGradient id="SVGID_00000008847359758148577090000004288296016924522389_" cx="1788.2444" cy="1193.2476" r="736.8236" gradientUnits="userSpaceOnUse">
	<stop  offset="0" style="stop-color:#D631E9"/>
	<stop  offset="0.2118" style="stop-color:#AC2CE5"/>
	<stop  offset="0.4558" style="stop-color:#8227E2"/>
	<stop  offset="0.6772" style="stop-color:#6423DF"/>
	<stop  offset="0.8661" style="stop-color:#5221DE"/>
	<stop  offset="1" style="stop-color:#4B20DD"/>
</radialGradient>
<path style="fill:url(#SVGID_00000008847359758148577090000004288296016924522389_);" d="M2078.405,1539.003
	c0,169.54-137.445,306.98-306.985,306.98s-306.98-137.44-306.98-306.98s137.44-306.985,306.98-306.985
	S2078.405,1369.463,2078.405,1539.003z"/>
<radialGradient id="SVGID_00000006698455588644943300000015826505933970531507_" cx="999.0573" cy="1206.4531" r="677.2551" gradientTransform="matrix(-1.0444 0 0 0.8613 2147.7234 81.4786)" gradientUnits="userSpaceOnUse">
	<stop  offset="0" style="stop-color:#190078"/>
	<stop  offset="0.0021" style="stop-color:#1A0179"/>
	<stop  offset="0.1237" style="stop-color:#4F3C98"/>
	<stop  offset="0.2474" style="stop-color:#7E70B3"/>
	<stop  offset="0.372" style="stop-color:#A59CCA"/>
	<stop  offset="0.4967" style="stop-color:#C6BFDD"/>
	<stop  offset="0.6215" style="stop-color:#DFDBEC"/>
	<stop  offset="0.7467" style="stop-color:#F1EFF7"/>
	<stop  offset="0.8725" style="stop-color:#FBFBFD"/>
	<stop  offset="1" style="stop-color:#FFFFFF"/>
</radialGradient>
<ellipse style="fill:url(#SVGID_00000006698455588644943300000015826505933970531507_);" cx="1099.779" cy="1112.226" rx="765.878" ry="631.605"/>
<radialGradient id="SVGID_00000037689896820798787700000017756715636809233802_" cx="999.0573" cy="1206.4531" r="677.2551" gradientTransform="matrix(-1.0444 0 0 0.8613 2147.7234 81.4786)" gradientUnits="userSpaceOnUse">
	<stop  offset="0" style="stop-color:#190078"/>
	<stop  offset="0.0021" style="stop-color:#1A0179"/>
	<stop  offset="0.1237" style="stop-color:#4F3C98"/>
	<stop  offset="0.2474" style="stop-color:#7E70B3"/>
	<stop  offset="0.372" style="stop-color:#A59CCA"/>
	<stop  offset="0.4967" style="stop-color:#C6BFDD"/>
	<stop  offset="0.6215" style="stop-color:#DFDBEC"/>
	<stop  offset="0.7467" style="stop-color:#F1EFF7"/>
	<stop  offset="0.8725" style="stop-color:#FBFBFD"/>
	<stop  offset="1" style="stop-color:#FFFFFF"/>
</radialGradient>
<ellipse style="fill:url(#SVGID_00000037689896820798787700000017756715636809233802_);" cx="1099.779" cy="1112.226" rx="765.878" ry="631.605"/>
<radialGradient id="SVGID_00000080894642221240365450000012695012614775900298_" cx="1121.5365" cy="1187.7896" r="677.247" gradientTransform="matrix(-1.0444 0 0 0.912 2147.7234 74.9866)" gradientUnits="userSpaceOnUse">
	<stop  offset="0" style="stop-color:#190078"/>
	<stop  offset="0.0021" style="stop-color:#1A0179"/>
	<stop  offset="0.1237" style="stop-color:#4F3C98"/>
	<stop  offset="0.2474" style="stop-color:#7E70B3"/>
	<stop  offset="0.372" style="stop-color:#A59CCA"/>
	<stop  offset="0.4967" style="stop-color:#C6BFDD"/>
	<stop  offset="0.6215" style="stop-color:#DFDBEC"/>
	<stop  offset="0.7467" style="stop-color:#F1EFF7"/>
	<stop  offset="0.8725" style="stop-color:#FBFBFD"/>
	<stop  offset="1" style="stop-color:#FFFFFF"/>
</radialGradient>
<ellipse style="fill:url(#SVGID_00000080894642221240365450000012695012614775900298_);" cx="971.861" cy="1149.387" rx="765.88" ry="668.767"/>
<radialGradient id="SVGID_00000114782612628081613910000010597664196029808053_" cx="1375.3661" cy="993.0254" r="2175.7454" gradientUnits="userSpaceOnUse">
	<stop  offset="0" style="stop-color:#D631E9"/>
	<stop  offset="0.2118" style="stop-color:#AC2CE5"/>
	<stop  offset="0.4558" style="stop-color:#8227E2"/>
	<stop  offset="0.6772" style="stop-color:#6423DF"/>
	<stop  offset="0.8661" style="stop-color:#5221DE"/>
	<stop  offset="1" style="stop-color:#4B20DD"/>
</radialGradient>
<path style="fill:url(#SVGID_00000114782612628081613910000010597664196029808053_);" d="M1151.308,1965.381
	c-85.256,0-163.94-13.138-234.938-39.305c-95.023-35.021-171.819-91.49-228.257-167.838c-57.82-78.212-91.236-175.556-96.628-281.51
	c-5.631-110.543,17.97-226.362,70.153-344.242c47.148-106.505,143.163-263.283,271.248-383.889
	c170.454-160.51,355.561-223.799,550.174-188.092c355.49,65.211,312.134,331.015,270.209,588.059
	c-11.161,68.434-22.702,139.195-25.87,203.739l-4.476-0.219l4.476,0.219c-7.91,161.14-53.567,302.729-132.046,409.452
	c-82.696,112.464-198.739,180.569-335.575,196.949C1222.567,1963.159,1186.377,1965.381,1151.308,1965.381z M1378.716,559.816
	c-154.268,0-301.746,65.415-439.688,195.304c-127.111,119.691-222.403,275.288-269.196,380.993
	c-102.469,231.472-93.176,456.286,25.484,616.801c98.365,133.057,257.637,203.542,455.134,203.551
	c34.943,0,71.046-2.205,108.26-6.658c267.045-31.969,443.209-261.083,459.737-597.94c3.194-65.048,14.779-136.067,25.979-204.741
	c20.58-126.184,41.865-256.659,14.136-361.423c-30.987-117.079-121.634-187.86-277.121-216.383
	C1446.9,562.984,1412.635,559.816,1378.716,559.816z"/>
<g>
	
		<radialGradient id="SVGID_00000029030391430822062210000011730870309616996009_" cx="1133.6307" cy="1365.1796" r="541.4603" gradientUnits="userSpaceOnUse">
		<stop  offset="0" style="stop-color:#D631E9"/>
		<stop  offset="0.2118" style="stop-color:#AC2CE5"/>
		<stop  offset="0.4558" style="stop-color:#8227E2"/>
		<stop  offset="0.6772" style="stop-color:#6423DF"/>
		<stop  offset="0.8661" style="stop-color:#5221DE"/>
		<stop  offset="1" style="stop-color:#4B20DD"/>
	</radialGradient>
	<path style="fill:url(#SVGID_00000029030391430822062210000011730870309616996009_);" d="M1121.682,1905.138
		c-80.74,0-155.264-12.442-222.501-37.223c-90.005-33.176-162.748-86.664-216.208-158.979
		c-54.769-74.087-86.419-166.285-91.529-266.647c-5.333-104.694,17.021-214.38,66.434-326.017
		c30.487-68.862,83.539-167.554,191.844-229.329c112.505-64.17,261.128-78.133,454.357-42.687
		c188.146,34.517,288.26,77.066,334.758,142.273c45.618,63.978,40.236,148.162,32.795,264.672
		c-1.492,23.345-3.036,47.486-4.301,73.285l-4.476-0.219l4.476,0.219c-7.49,152.609-50.737,286.694-125.06,387.774
		c-78.334,106.526-188.252,171.036-317.865,186.55C1189.165,1903.029,1154.895,1905.138,1121.682,1905.138z M1113.711,834.304
		c-280.225,0-386.645,147.814-447.639,285.598c-96.972,219.059-88.185,431.815,24.104,583.706
		c109.55,148.19,298.92,214.357,533.162,186.31c252.699-30.249,419.396-247.078,435.041-565.867
		c1.269-25.869,2.817-50.041,4.31-73.421c14.805-231.722,20.935-327.635-360.229-397.56
		C1232.004,840.146,1169.42,834.304,1113.711,834.304z"/>
	
		<radialGradient id="SVGID_00000127004529505429020390000017362732190319077546_" cx="1103.2637" cy="1338.9164" r="500.6099" gradientUnits="userSpaceOnUse">
		<stop  offset="0" style="stop-color:#D631E9"/>
		<stop  offset="0.2118" style="stop-color:#AC2CE5"/>
		<stop  offset="0.4558" style="stop-color:#8227E2"/>
		<stop  offset="0.6772" style="stop-color:#6423DF"/>
		<stop  offset="0.8661" style="stop-color:#5221DE"/>
		<stop  offset="1" style="stop-color:#4B20DD"/>
	</radialGradient>
	<path style="fill:url(#SVGID_00000127004529505429020390000017362732190319077546_);" d="M1092.229,1838.139
		c-74.64,0-143.537-11.502-205.697-34.414c-83.221-30.673-150.485-80.132-199.918-147c-50.641-68.503-79.905-153.755-84.632-246.549
		c-4.928-96.783,15.732-198.178,61.412-301.367c28.186-63.667,77.238-154.919,177.391-212.043
		c104.014-59.325,241.404-72.249,420.024-39.476c173.924,31.902,266.485,71.256,309.501,131.583
		c42.219,59.209,37.244,137.042,30.366,244.754c-1.378,21.569-2.804,43.873-3.973,67.713l0,0
		c-6.925,141.063-46.904,265.016-115.613,358.456c-72.429,98.504-174.063,158.152-293.917,172.498
		C1154.603,1836.191,1122.927,1838.139,1092.229,1838.139z M1084.889,848.769c-258.751,0-356.989,136.463-413.3,263.666
		c-89.545,202.278-81.441,398.725,22.231,538.961c101.139,136.814,275.988,197.89,492.286,172.003
		c233.297-27.926,387.196-228.139,401.646-522.502c1.173-23.9,2.599-46.235,3.981-67.839
		c13.663-213.88,19.315-302.409-332.544-366.958C1194.135,854.169,1136.327,848.769,1084.889,848.769z"/>
	
		<radialGradient id="SVGID_00000054259590630163705700000008004359114377393289_" cx="1072.8984" cy="1312.6552" r="459.7584" gradientUnits="userSpaceOnUse">
		<stop  offset="0" style="stop-color:#D631E9"/>
		<stop  offset="0.2118" style="stop-color:#AC2CE5"/>
		<stop  offset="0.4558" style="stop-color:#8227E2"/>
		<stop  offset="0.6772" style="stop-color:#6423DF"/>
		<stop  offset="0.8661" style="stop-color:#5221DE"/>
		<stop  offset="1" style="stop-color:#4B20DD"/>
	</radialGradient>
	<path style="fill:url(#SVGID_00000054259590630163705700000008004359114377393289_);" d="M1062.771,1771.14
		c-68.541,0-131.801-10.565-188.886-31.604c-76.438-28.175-138.217-73.601-183.625-135.021
		c-46.513-62.921-73.393-141.225-77.735-226.445c-4.526-88.874,14.446-181.979,56.387-276.724
		c25.885-58.472,70.939-142.279,162.939-194.757c95.535-54.486,221.692-66.351,385.687-36.264
		c159.71,29.297,244.72,65.454,284.253,120.896c38.819,54.44,34.252,125.915,27.93,224.843c-1.265,19.787-2.572,40.254-3.645,62.125
		c-6.356,129.521-43.067,243.332-106.164,329.144c-66.525,90.476-159.879,145.264-269.968,158.44
		C1120.042,1769.355,1090.957,1771.14,1062.771,1771.14z M1056.06,863.238c-237.276,0-327.327,125.107-378.956,241.734
		c-82.114,185.5-74.694,365.632,20.361,494.214c78.783,106.57,206.379,163.021,364.623,163.025
		c28.011,0.004,56.956-1.764,86.787-5.333c213.902-25.607,355.005-209.2,368.248-479.124l0,0c1.076-21.94,2.389-42.441,3.653-62.265
		c12.525-196.04,17.71-277.183-304.858-336.355C1156.26,868.188,1103.226,863.238,1056.06,863.238z"/>
	
		<radialGradient id="SVGID_00000182488746992524176450000000380301567214240669_" cx="1042.3364" cy="1286.3899" r="418.9934" gradientUnits="userSpaceOnUse">
		<stop  offset="0" style="stop-color:#D631E9"/>
		<stop  offset="0.2118" style="stop-color:#AC2CE5"/>
		<stop  offset="0.4558" style="stop-color:#8227E2"/>
		<stop  offset="0.6772" style="stop-color:#6423DF"/>
		<stop  offset="0.8661" style="stop-color:#5221DE"/>
		<stop  offset="1" style="stop-color:#4B20DD"/>
	</radialGradient>
	<path style="fill:url(#SVGID_00000182488746992524176450000000380301567214240669_);" d="M1033.312,1704.137
		c-62.436,0-120.067-9.62-172.075-28.792c-69.652-25.672-125.952-67.068-167.333-123.042
		c-88.405-119.591-95.504-286.677-19.478-458.426c23.583-53.279,64.639-129.64,148.485-177.463
		c87.047-49.649,201.972-60.467,351.353-33.061c301.109,55.239,295.902,136.686,284.501,315.14
		c-1.15,18.012-2.34,36.64-3.315,56.547l-4.477-0.22l4.477,0.22c-5.793,117.976-39.235,221.654-96.719,299.827
		c-60.624,82.447-145.7,132.379-246.019,144.384C1085.475,1702.514,1058.984,1704.137,1033.312,1704.137z M1027.235,877.706
		c-215.764,0-297.673,113.756-344.615,219.8c-74.688,168.72-67.948,332.542,18.489,449.468
		c84.317,114.061,230.119,164.973,410.537,143.382c194.498-23.283,322.803-190.256,334.852-435.754
		c0.979-19.977,2.174-38.632,3.324-56.683c11.389-178.194,16.101-251.952-277.178-305.756
		C1118.37,882.208,1070.147,877.706,1027.235,877.706z"/>
	
		<radialGradient id="SVGID_00000031916516142981662810000003324502538668244390_" cx="1011.9918" cy="1260.1437" r="378.1453" gradientUnits="userSpaceOnUse">
		<stop  offset="0" style="stop-color:#D631E9"/>
		<stop  offset="0.2118" style="stop-color:#AC2CE5"/>
		<stop  offset="0.4558" style="stop-color:#8227E2"/>
		<stop  offset="0.6772" style="stop-color:#6423DF"/>
		<stop  offset="0.8661" style="stop-color:#5221DE"/>
		<stop  offset="1" style="stop-color:#4B20DD"/>
	</radialGradient>
	<path style="fill:url(#SVGID_00000031916516142981662810000003324502538668244390_);" d="M1003.238,1637.173
		c-132.486,0-239.446-47.473-305.692-137.081c-79.787-107.932-86.205-258.712-17.605-413.677
		c21.287-48.083,58.336-117.002,134.035-160.177c78.557-44.811,182.247-54.584,317.019-29.853
		c271.811,49.862,267.111,123.401,256.817,284.537c-1.037,16.235-2.109,33.026-2.988,50.964l0,0
		c-5.229,106.44-35.402,199.981-87.269,270.516c-54.727,74.419-131.517,119.49-222.072,130.331
		C1050.667,1635.699,1026.554,1637.173,1003.238,1637.173z M998.41,892.174c-194.294,0-268.017,102.404-310.275,197.868
		c-67.259,151.938-61.202,299.449,16.617,404.721c75.908,102.681,207.182,148.505,369.663,129.071
		c175.094-20.961,290.608-171.313,301.458-392.386c0.884-18.007,1.96-34.829,2.997-51.1
		c10.246-160.353,14.485-226.726-249.494-275.152C1080.5,896.227,1037.052,892.174,998.41,892.174z"/>
	
		<radialGradient id="SVGID_00000051351905699422081230000007301541184996775574_" cx="981.6464" cy="1233.882" r="337.2835" gradientUnits="userSpaceOnUse">
		<stop  offset="0" style="stop-color:#D631E9"/>
		<stop  offset="0.2118" style="stop-color:#AC2CE5"/>
		<stop  offset="0.4558" style="stop-color:#8227E2"/>
		<stop  offset="0.6772" style="stop-color:#6423DF"/>
		<stop  offset="0.8661" style="stop-color:#5221DE"/>
		<stop  offset="1" style="stop-color:#4B20DD"/>
	</radialGradient>
	<path style="fill:url(#SVGID_00000051351905699422081230000007301541184996775574_);" d="M973.844,1570.17
		c-118.158,0-213.552-42.35-272.652-122.29c-71.17-96.276-76.906-230.746-15.735-368.931
		c18.985-42.888,52.039-104.363,119.582-142.89c70.07-39.968,162.536-48.683,282.684-26.642
		c242.513,44.487,238.316,110.123,229.13,253.935c-0.924,14.459-1.877,29.412-2.66,45.386l0,0
		c-4.66,94.889-31.57,178.294-77.818,241.198c-48.825,66.395-117.331,106.601-198.128,116.27
		C1016.129,1568.857,994.625,1570.17,973.844,1570.17z M969.579,906.642c-172.791,0-238.352,91.05-275.927,175.934
		c-59.833,135.161-54.46,266.363,14.746,359.975c67.5,91.307,184.268,132.047,328.786,114.761
		c155.69-18.633,258.407-152.368,268.059-349.011c0.787-16.044,1.745-31.028,2.673-45.522
		c9.104-142.511,12.871-201.499-221.811-244.549C1042.613,910.25,1003.958,906.642,969.579,906.642z"/>
	
		<radialGradient id="SVGID_00000160877332010941965700000005242922638256669340_" cx="951.3032" cy="1207.5474" r="296.3906" gradientUnits="userSpaceOnUse">
		<stop  offset="0" style="stop-color:#D631E9"/>
		<stop  offset="0.2118" style="stop-color:#AC2CE5"/>
		<stop  offset="0.4558" style="stop-color:#8227E2"/>
		<stop  offset="0.6772" style="stop-color:#6423DF"/>
		<stop  offset="0.8661" style="stop-color:#5221DE"/>
		<stop  offset="1" style="stop-color:#4B20DD"/>
	</radialGradient>
	<path style="fill:url(#SVGID_00000160877332010941965700000005242922638256669340_);" d="M946.363,1503.027
		c-103.856,0-190.104-37.805-241.526-107.363c-62.554-84.616-67.607-202.776-13.864-324.179
		c16.686-37.695,45.738-91.726,105.131-125.602c61.587-35.127,142.82-42.796,248.349-23.435
		c213.215,39.11,209.528,96.843,201.451,223.328c-0.8,12.539-1.649,25.786-2.336,39.808l0,0
		c-4.09,83.349-27.732,156.621-68.373,211.882c-42.922,58.371-103.146,93.717-174.177,102.222
		C982.35,1501.92,964.09,1503.027,946.363,1503.027z M940.756,921.108c-151.298,0-208.699,79.704-241.59,154.004
		c-52.404,118.379-47.711,233.275,12.873,315.224c59.089,79.931,161.343,115.601,287.915,100.459
		c136.29-16.319,226.209-133.434,234.662-305.647l4.476,0.22l-4.476-0.22c0.691-14.069,1.54-27.36,2.345-39.938
		c7.963-124.668,11.258-176.273-194.127-213.949C1004.729,924.271,970.876,921.108,940.756,921.108z"/>
	
		<radialGradient id="SVGID_00000054978924349312147560000003448388508388132494_" cx="920.9588" cy="1181.2926" r="255.534" gradientUnits="userSpaceOnUse">
		<stop  offset="0" style="stop-color:#D631E9"/>
		<stop  offset="0.2118" style="stop-color:#AC2CE5"/>
		<stop  offset="0.4558" style="stop-color:#8227E2"/>
		<stop  offset="0.6772" style="stop-color:#6423DF"/>
		<stop  offset="0.8661" style="stop-color:#5221DE"/>
		<stop  offset="1" style="stop-color:#4B20DD"/>
	</radialGradient>
	<path style="fill:url(#SVGID_00000054978924349312147560000003448388508388132494_);" d="M916.703,1436.041
		c-89.519,0-163.874-32.603-208.219-92.584c-53.938-72.966-58.308-174.812-11.994-279.438
		c35.155-79.421,101.555-165.81,304.69-128.54c183.925,33.74,180.74,83.563,173.766,192.737
		c-0.691,10.771-1.417,22.163-2.008,34.217c-7.481,152.446-87.62,256.187-209.151,270.733
		C947.706,1435.097,931.976,1436.041,916.703,1436.041z M911.929,935.576c-129.808,0-179.038,68.346-207.246,132.068
		c-44.977,101.601-40.965,200.187,11.003,270.484c50.68,68.557,138.432,99.146,247.037,86.144
		c116.891-13.991,194.013-114.494,201.263-262.272l0,0c0.595-12.105,1.326-23.537,2.017-34.361
		c6.825-106.824,9.651-151.042-166.442-183.348C966.847,938.289,937.781,935.576,911.929,935.576z"/>
	
		<radialGradient id="SVGID_00000116212406256448522130000008635581532492071859_" cx="890.6158" cy="1155.0383" r="214.6826" gradientUnits="userSpaceOnUse">
		<stop  offset="0" style="stop-color:#D631E9"/>
		<stop  offset="0.2118" style="stop-color:#AC2CE5"/>
		<stop  offset="0.4558" style="stop-color:#8227E2"/>
		<stop  offset="0.6772" style="stop-color:#6423DF"/>
		<stop  offset="0.8661" style="stop-color:#5221DE"/>
		<stop  offset="1" style="stop-color:#4B20DD"/>
	</radialGradient>
	<path style="fill:url(#SVGID_00000116212406256448522130000008635581532492071859_);" d="M887.044,1369.061
		c-75.18,0-137.651-27.405-174.921-77.818c-45.316-61.303-49.006-146.843-10.119-234.688
		c29.549-66.738,85.334-139.331,255.902-108.041c154.634,28.363,151.959,70.284,146.088,162.131
		c-0.58,9.019-1.186,18.552-1.68,28.641c-6.287,128.017-73.631,215.137-175.759,227.359
		C913.058,1368.264,899.865,1369.061,887.044,1369.061z M883.102,950.044c-108.312,0-149.38,56.998-172.904,110.136
		c-37.546,84.818-34.219,167.095,9.13,225.732c42.271,57.177,115.474,82.688,206.163,71.837
		c97.491-11.672,161.814-95.549,167.871-218.902l4.476,0.219l-4.476-0.219c0.499-10.133,1.111-19.714,1.687-28.777
		c5.856-91.558,8.043-125.816-138.76-152.747C928.966,952.313,904.689,950.044,883.102,950.044z"/>
	
		<radialGradient id="SVGID_00000149360360728028096370000011019114057332504192_" cx="860.2693" cy="1128.8678" r="173.7865" gradientUnits="userSpaceOnUse">
		<stop  offset="0" style="stop-color:#D631E9"/>
		<stop  offset="0.2118" style="stop-color:#AC2CE5"/>
		<stop  offset="0.4558" style="stop-color:#8227E2"/>
		<stop  offset="0.6772" style="stop-color:#6423DF"/>
		<stop  offset="0.8661" style="stop-color:#5221DE"/>
		<stop  offset="1" style="stop-color:#4B20DD"/>
	</radialGradient>
	<path style="fill:url(#SVGID_00000149360360728028096370000011019114057332504192_);" d="M857.391,1302.078
		c-60.85,0-111.427-22.203-141.623-63.047c-36.702-49.648-39.707-118.878-8.249-189.941
		c22.065-49.846,67.539-113.161,207.119-87.548c125.335,22.995,123.16,57.006,118.4,131.525c-0.466,7.263-0.954,14.941-1.352,23.065
		l0,0c-5.086,103.586-59.636,174.09-142.363,183.991C878.417,1301.432,867.753,1302.078,857.391,1302.078z M854.275,964.513
		c-86.815,0-119.724,45.644-138.563,88.204c-30.12,68.036-27.473,134.002,7.26,180.985c33.858,45.802,92.562,66.229,165.288,57.526
		c78.091-9.35,129.62-76.605,134.474-175.534c0.403-8.172,0.895-15.892,1.363-23.196c4.675-73.198,6.425-100.586-111.079-122.146
		C891.08,966.328,871.603,964.513,854.275,964.513z"/>
	
		<radialGradient id="SVGID_00000132788254184248829240000014217978288497687225_" cx="829.9067" cy="1102.5903" r="132.933" gradientUnits="userSpaceOnUse">
		<stop  offset="0" style="stop-color:#D631E9"/>
		<stop  offset="0.2118" style="stop-color:#AC2CE5"/>
		<stop  offset="0.4558" style="stop-color:#8227E2"/>
		<stop  offset="0.6772" style="stop-color:#6423DF"/>
		<stop  offset="0.8661" style="stop-color:#5221DE"/>
		<stop  offset="1" style="stop-color:#4B20DD"/>
	</radialGradient>
	<path style="fill:url(#SVGID_00000132788254184248829240000014217978288497687225_);" d="M827.731,1235.094
		c-46.515,0-85.197-16.998-108.315-48.274c-28.087-37.988-30.41-90.913-6.381-145.197c16.89-38.152,51.669-86.612,158.329-67.047
		c96.042,17.618,94.264,45.46,90.72,100.927c-0.352,5.506-0.724,11.327-1.026,17.482c-3.885,79.156-45.638,133.039-108.966,140.617
		C843.773,1234.599,835.636,1235.094,827.731,1235.094z M825.449,978.981c-65.325,0-90.064,34.291-104.219,66.268
		c-22.691,51.257-20.727,100.918,5.39,136.241c25.45,34.428,69.632,49.766,124.41,43.217c58.693-7.026,97.423-57.667,101.078-132.16
		l0,0c0.306-6.204,0.68-12.071,1.035-17.618c3.504-54.841,4.814-75.359-83.398-91.542
		C853.199,980.352,838.513,978.981,825.449,978.981z"/>
</g>
<radialGradient id="SVGID_00000103264162610561092610000016992192234558369451_" cx="600.8386" cy="383.0958" r="1649.7273" gradientUnits="userSpaceOnUse">
	<stop  offset="0" style="stop-color:#D631E9"/>
	<stop  offset="0.2118" style="stop-color:#AC2CE5"/>
	<stop  offset="0.4558" style="stop-color:#8227E2"/>
	<stop  offset="0.6772" style="stop-color:#6423DF"/>
	<stop  offset="0.8661" style="stop-color:#5221DE"/>
	<stop  offset="1" style="stop-color:#4B20DD"/>
</radialGradient>
<path style="fill:url(#SVGID_00000103264162610561092610000016992192234558369451_);" d="M1920.595,1446.218
	c311.421-658.786-663.005-611.45-927.056-761.432c-264.051-149.98-362.526-221.48-514.89-166.432
	c-223.576,80.775-331.719,827.256,57.199,971.67c300.701,111.654,391.271,12.474,723.395,77.157
	C1439.878,1602.361,1821.059,1656.777,1920.595,1446.218z"/>
<radialGradient id="SVGID_00000173867817153704262690000006591485498204760762_" cx="1375.3656" cy="993.0247" r="2175.7446" gradientUnits="userSpaceOnUse">
	<stop  offset="0" style="stop-color:#D631E9"/>
	<stop  offset="0.2118" style="stop-color:#AC2CE5"/>
	<stop  offset="0.4558" style="stop-color:#8227E2"/>
	<stop  offset="0.6772" style="stop-color:#6423DF"/>
	<stop  offset="0.8661" style="stop-color:#5221DE"/>
	<stop  offset="1" style="stop-color:#4B20DD"/>
</radialGradient>
<path style="fill:url(#SVGID_00000173867817153704262690000006591485498204760762_);" d="M1259.777,1958.701l-1.067-8.895
	c267.045-31.969,443.209-261.087,459.737-597.94c3.194-65.048,14.779-136.067,25.979-204.741
	c20.58-126.184,41.865-256.659,14.136-361.423c-30.987-117.079-121.634-187.86-277.121-216.383l1.619-8.813
	c355.49,65.211,312.134,331.015,270.209,588.059c-11.161,68.434-22.702,139.195-25.87,203.739
	c-7.91,161.14-53.567,302.729-132.046,409.452C1512.656,1874.22,1396.613,1942.325,1259.777,1958.701z"/>
<radialGradient id="SVGID_00000046312740824580774380000012661860305481522861_" cx="1743.4991" cy="437.5753" r="252.2879" gradientUnits="userSpaceOnUse">
	<stop  offset="0" style="stop-color:#D631E9"/>
	<stop  offset="0.2118" style="stop-color:#AC2CE5"/>
	<stop  offset="0.4558" style="stop-color:#8227E2"/>
	<stop  offset="0.6772" style="stop-color:#6423DF"/>
	<stop  offset="0.8661" style="stop-color:#5221DE"/>
	<stop  offset="1" style="stop-color:#4B20DD"/>
</radialGradient>
<path style="fill:url(#SVGID_00000046312740824580774380000012661860305481522861_);" d="M1842.851,555.962
	c0,58.05-47.062,105.109-105.109,105.109c-58.052,0-105.113-47.06-105.113-105.109c0-58.052,47.062-105.112,105.113-105.112
	C1795.789,450.85,1842.851,497.91,1842.851,555.962z"/>
<radialGradient id="SVGID_00000126296835452262352190000001876967522972207793_" cx="1543.7843" cy="327.4333" r="86.6034" gradientUnits="userSpaceOnUse">
	<stop  offset="0" style="stop-color:#D631E9"/>
	<stop  offset="0.2118" style="stop-color:#AC2CE5"/>
	<stop  offset="0.4558" style="stop-color:#8227E2"/>
	<stop  offset="0.6772" style="stop-color:#6423DF"/>
	<stop  offset="0.8661" style="stop-color:#5221DE"/>
	<stop  offset="1" style="stop-color:#4B20DD"/>
</radialGradient>
<path style="fill:url(#SVGID_00000126296835452262352190000001876967522972207793_);" d="M1577.888,368.071
	c0,19.928-16.157,36.083-36.081,36.083c-19.928,0-36.08-16.155-36.08-36.083c0-19.926,16.152-36.081,36.08-36.081
	C1561.73,331.99,1577.888,348.145,1577.888,368.071z"/>
<radialGradient id="SVGID_00000014606489140399638940000001212066177395673750_" cx="244.8005" cy="1007.1138" r="226.2511" gradientUnits="userSpaceOnUse">
	<stop  offset="0" style="stop-color:#D631E9"/>
	<stop  offset="0.2118" style="stop-color:#AC2CE5"/>
	<stop  offset="0.4558" style="stop-color:#8227E2"/>
	<stop  offset="0.6772" style="stop-color:#6423DF"/>
	<stop  offset="0.8661" style="stop-color:#5221DE"/>
	<stop  offset="1" style="stop-color:#4B20DD"/>
</radialGradient>
<path style="opacity:0.7;fill:url(#SVGID_00000014606489140399638940000001212066177395673750_);" d="M333.9,1113.282
	c0,52.061-42.204,94.262-94.264,94.262c-52.063,0-94.266-42.201-94.266-94.262s42.204-94.264,94.266-94.264
	C291.696,1019.019,333.9,1061.222,333.9,1113.282z"/>
</svg>
