<svg xmlns="http://www.w3.org/2000/svg" xmlns:xlink="http://www.w3.org/1999/xlink" width="500" zoomAndPan="magnify" viewBox="0 0 375 374.999991" height="500" preserveAspectRatio="xMidYMid meet" version="1.0"><defs><clipPath id="1e397b7a79"><path d="M 108 109 L 131 109 L 131 140 L 108 140 Z M 108 109 " clip-rule="nonzero"/></clipPath><clipPath id="f7f162cfc0"><path d="M 108.351562 137.164062 L 126.457031 109.144531 L 130.761719 111.929688 L 112.65625 139.945312 Z M 108.351562 137.164062 " clip-rule="nonzero"/></clipPath><clipPath id="c8adbf925f"><path d="M 116.050781 140.691406 L 163.117188 140.691406 L 163.117188 145.820312 L 116.050781 145.820312 Z M 116.050781 140.691406 " clip-rule="nonzero"/></clipPath><clipPath id="f7b8296d26"><path d="M 119.554688 73.097656 L 359.554688 73.097656 L 359.554688 274.097656 L 119.554688 274.097656 Z M 119.554688 73.097656 " clip-rule="nonzero"/></clipPath><clipPath id="dd59728411"><path d="M 333.761719 121.65625 C 317.609375 105.5 295.242188 95.5625 270.582031 95.5625 L 226.710938 95.5625 C 225.371094 88.011719 218.777344 82.273438 210.746094 82.273438 C 201.859375 82.273438 194.59375 89.539062 194.59375 98.429688 C 194.59375 99.671875 194.6875 100.816406 194.976562 101.964844 L 159.035156 117.257812 L 139.726562 108.65625 C 139.726562 108.273438 139.824219 107.796875 139.824219 107.414062 C 139.824219 101.773438 135.234375 97.28125 129.691406 97.28125 C 124.054688 97.28125 119.558594 101.773438 119.558594 107.414062 C 119.558594 112.957031 124.054688 117.546875 129.691406 117.546875 C 131.414062 117.546875 133.039062 117.066406 134.472656 116.304688 L 162.859375 144.691406 L 162.859375 274.109375 L 270.582031 274.109375 C 295.242188 274.109375 317.609375 264.074219 333.761719 247.921875 C 349.917969 231.765625 359.855469 209.496094 359.855469 184.835938 C 359.855469 160.175781 349.917969 137.808594 333.761719 121.65625 Z M 138.484375 78.835938 C 140.109375 78.835938 141.351562 77.589844 141.351562 75.964844 C 141.351562 74.339844 140.109375 73.097656 138.484375 73.097656 C 136.957031 73.097656 135.617188 74.339844 135.617188 75.964844 C 135.617188 77.589844 136.957031 78.835938 138.484375 78.835938 Z M 153.109375 100.628906 C 157.027344 100.628906 160.085938 97.472656 160.085938 93.648438 C 160.085938 89.730469 157.027344 86.671875 153.109375 86.671875 C 149.285156 86.671875 146.132812 89.730469 146.132812 93.648438 C 146.132812 97.472656 149.285156 100.628906 153.109375 100.628906 Z M 181.210938 94.03125 C 181.210938 91.640625 179.203125 89.636719 176.816406 89.636719 C 174.425781 89.636719 172.417969 91.640625 172.417969 94.03125 C 172.417969 96.421875 174.425781 98.429688 176.816406 98.429688 C 179.203125 98.429688 181.210938 96.421875 181.210938 94.03125 Z M 207.878906 114.390625 L 207.878906 138.957031 L 188.667969 130.449219 L 188.667969 129.589844 C 188.667969 128.15625 188.285156 126.816406 187.710938 125.671875 L 201.570312 111.808594 C 203.386719 113.054688 205.585938 114.007812 207.878906 114.390625 Z M 221.738281 110.375 L 261.789062 140.582031 L 213.710938 140.582031 L 213.710938 114.390625 C 216.769531 113.816406 219.539062 112.382812 221.738281 110.375 Z M 218.679688 104.257812 L 218.585938 104.355469 C 216.863281 106.746094 213.996094 108.273438 210.746094 108.273438 C 208.070312 108.273438 205.585938 107.125 203.863281 105.40625 C 202.046875 103.589844 200.996094 101.199219 200.996094 98.429688 C 200.996094 93.074219 205.394531 88.679688 210.746094 88.679688 C 216.195312 88.679688 220.59375 93.074219 220.59375 98.429688 C 220.59375 100.628906 219.828125 102.632812 218.679688 104.257812 Z M 197.269531 107.414062 L 197.460938 107.699219 L 183.601562 121.464844 C 182.359375 120.890625 181.019531 120.605469 179.585938 120.605469 C 177.007812 120.605469 174.617188 121.65625 172.992188 123.472656 L 166.300781 120.507812 Z M 186.277344 135.800781 L 207.878906 145.359375 L 207.878906 181.394531 L 169.933594 143.449219 L 175.667969 137.714844 C 176.816406 138.285156 178.152344 138.667969 179.585938 138.667969 C 182.261719 138.667969 184.558594 137.523438 186.277344 135.800781 Z M 183.125 131.214844 Z M 179.585938 125.859375 C 180.636719 125.859375 181.59375 126.242188 182.261719 126.914062 C 183.027344 127.582031 183.410156 128.539062 183.410156 129.589844 C 183.410156 130.164062 183.3125 130.640625 183.125 131.117188 L 183.125 131.214844 C 182.453125 132.550781 181.117188 133.414062 179.585938 133.414062 C 178.535156 133.414062 177.578125 133.03125 176.910156 132.265625 C 176.242188 131.597656 175.859375 130.640625 175.859375 129.589844 C 175.859375 127.484375 177.484375 125.859375 179.585938 125.859375 Z M 170.601562 129.589844 C 170.601562 131.023438 170.886719 132.359375 171.460938 133.601562 L 165.726562 139.339844 L 142.976562 116.492188 L 170.601562 128.824219 Z M 213.710938 146.410156 L 270.582031 146.410156 C 281.191406 146.410156 290.75 150.710938 297.726562 157.691406 C 304.707031 164.574219 309.007812 174.226562 309.007812 184.835938 C 309.007812 195.445312 304.707031 205.003906 297.726562 211.980469 C 290.75 218.863281 281.191406 223.164062 270.582031 223.164062 L 213.710938 223.164062 Z M 213.710938 146.410156 " clip-rule="nonzero"/></clipPath><linearGradient x1="665.540425" gradientTransform="matrix(0.0955833, 0, 0, 0.0955833, 119.560351, 73.099148)" y1="-292.903767" x2="1848.258055" gradientUnits="userSpaceOnUse" y2="2394.485663" id="bfb65ff2d2"><stop stop-opacity="1" stop-color="rgb(100%, 100%, 100%)" offset="0"/><stop stop-opacity="1" stop-color="rgb(100%, 100%, 100%)" offset="0.25"/><stop stop-opacity="1" stop-color="rgb(99.830627%, 99.862671%, 99.952698%)" offset="0.28125"/><stop stop-opacity="1" stop-color="rgb(99.536133%, 99.623108%, 99.8703%)" offset="0.296875"/><stop stop-opacity="1" stop-color="rgb(99.287415%, 99.420166%, 99.80011%)" offset="0.3125"/><stop stop-opacity="1" stop-color="rgb(99.038696%, 99.215698%, 99.731445%)" offset="0.328125"/><stop stop-opacity="1" stop-color="rgb(98.788452%, 99.012756%, 99.661255%)" offset="0.34375"/><stop stop-opacity="1" stop-color="rgb(98.539734%, 98.809814%, 99.591064%)" offset="0.34447"/><stop stop-opacity="1" stop-color="rgb(98.414612%, 98.709106%, 99.557495%)" offset="0.359375"/><stop stop-opacity="1" stop-color="rgb(98.28949%, 98.606873%, 99.5224%)" offset="0.375"/><stop stop-opacity="1" stop-color="rgb(98.040771%, 98.403931%, 99.452209%)" offset="0.390625"/><stop stop-opacity="1" stop-color="rgb(97.790527%, 98.200989%, 99.383545%)" offset="0.40625"/><stop stop-opacity="1" stop-color="rgb(97.541809%, 97.998047%, 99.313354%)" offset="0.421875"/><stop stop-opacity="1" stop-color="rgb(97.291565%, 97.795105%, 99.243164%)" offset="0.4375"/><stop stop-opacity="1" stop-color="rgb(97.042847%, 97.592163%, 99.1745%)" offset="0.453125"/><stop stop-opacity="1" stop-color="rgb(96.794128%, 97.389221%, 99.104309%)" offset="0.46875"/><stop stop-opacity="1" stop-color="rgb(96.543884%, 97.186279%, 99.034119%)" offset="0.484375"/><stop stop-opacity="1" stop-color="rgb(96.295166%, 96.983337%, 98.965454%)" offset="0.5"/><stop stop-opacity="1" stop-color="rgb(96.044922%, 96.780396%, 98.895264%)" offset="0.515625"/><stop stop-opacity="1" stop-color="rgb(95.809937%, 96.589661%, 98.829651%)" offset="0.53125"/><stop stop-opacity="1" stop-color="rgb(95.698547%, 96.499634%, 98.799133%)" offset="0.5625"/><stop stop-opacity="1" stop-color="rgb(95.698547%, 96.499634%, 98.799133%)" offset="0.625"/><stop stop-opacity="1" stop-color="rgb(95.698547%, 96.499634%, 98.799133%)" offset="0.65553"/><stop stop-opacity="1" stop-color="rgb(95.698547%, 96.499634%, 98.799133%)" offset="0.75"/><stop stop-opacity="1" stop-color="rgb(95.698547%, 96.499634%, 98.799133%)" offset="1"/></linearGradient><clipPath id="7fb733882b"><path d="M 162.9375 183.449219 L 213.53125 183.449219 L 213.53125 293.761719 L 162.9375 293.761719 Z M 162.9375 183.449219 " clip-rule="nonzero"/></clipPath><clipPath id="8077c3bd21"><path d="M 213.53125 145.820312 L 375 145.820312 L 375 375 L 213.53125 375 Z M 213.53125 145.820312 " clip-rule="nonzero"/></clipPath><clipPath id="9fb6684550"><path d="M 280.996094 94.238281 L 375 94.238281 L 375 324.917969 L 280.996094 324.917969 Z M 280.996094 94.238281 " clip-rule="nonzero"/></clipPath><clipPath id="ee86e98d9d"><path d="M 95.652344 124.550781 L 127.933594 124.550781 L 127.933594 156.832031 L 95.652344 156.832031 Z M 95.652344 124.550781 " clip-rule="nonzero"/></clipPath><clipPath id="996d6c7328"><path d="M 111.792969 124.550781 C 102.878906 124.550781 95.652344 131.777344 95.652344 140.691406 C 95.652344 149.605469 102.878906 156.832031 111.792969 156.832031 C 120.707031 156.832031 127.933594 149.605469 127.933594 140.691406 C 127.933594 131.777344 120.707031 124.550781 111.792969 124.550781 Z M 111.792969 124.550781 " clip-rule="nonzero"/></clipPath><clipPath id="437a83918c"><path d="M 101.648438 130.855469 L 121.628906 130.855469 L 121.628906 150.835938 L 101.648438 150.835938 Z M 101.648438 130.855469 " clip-rule="nonzero"/></clipPath><clipPath id="bbc734efa5"><path d="M 111.636719 130.855469 C 106.121094 130.855469 101.648438 135.328125 101.648438 140.847656 C 101.648438 146.363281 106.121094 150.835938 111.636719 150.835938 C 117.15625 150.835938 121.628906 146.363281 121.628906 140.847656 C 121.628906 135.328125 117.15625 130.855469 111.636719 130.855469 Z M 111.636719 130.855469 " clip-rule="nonzero"/></clipPath><clipPath id="d283933556"><path d="M 128.46875 145.820312 L 163.117188 145.820312 L 163.117188 375 L 128.46875 375 Z M 128.46875 145.820312 " clip-rule="nonzero"/></clipPath></defs><rect x="-37.5" width="450" fill="#ffffff" y="-37.499999" height="449.999989" fill-opacity="1"/><rect x="-37.5" width="450" fill="#000000" y="-37.499999" height="449.999989" fill-opacity="1"/><g clip-path="url(#1e397b7a79)"><g clip-path="url(#f7f162cfc0)"><path fill="#f4f6fc" d="M 108.351562 137.164062 L 126.457031 109.144531 L 130.765625 111.925781 L 112.65625 139.945312 Z M 108.351562 137.164062 " fill-opacity="1" fill-rule="nonzero"/></g></g><g clip-path="url(#c8adbf925f)"><path fill="#f4f6fc" d="M 116.050781 140.691406 L 163.109375 140.691406 L 163.109375 145.820312 L 116.050781 145.820312 Z M 116.050781 140.691406 " fill-opacity="1" fill-rule="nonzero"/></g><g clip-path="url(#f7b8296d26)"><g clip-path="url(#dd59728411)"><path fill="url(#bfb65ff2d2)" d="M 119.558594 73.097656 L 119.558594 274.097656 L 359.554688 274.097656 L 359.554688 73.097656 Z M 119.558594 73.097656 " fill-rule="nonzero"/></g></g><g clip-path="url(#7fb733882b)"><path fill="#ffffff" d="M 162.9375 183.449219 L 213.53125 183.449219 L 213.53125 293.730469 L 162.9375 293.730469 Z M 162.9375 183.449219 " fill-opacity="1" fill-rule="nonzero"/></g><g clip-path="url(#8077c3bd21)"><path fill="#000000" d="M 213.53125 145.820312 L 444.214844 145.820312 L 444.214844 376.5 L 213.53125 376.5 Z M 213.53125 145.820312 " fill-opacity="1" fill-rule="nonzero"/></g><g clip-path="url(#9fb6684550)"><path fill="#000000" d="M 280.996094 94.238281 L 511.679688 94.238281 L 511.679688 324.917969 L 280.996094 324.917969 Z M 280.996094 94.238281 " fill-opacity="1" fill-rule="nonzero"/></g><g clip-path="url(#ee86e98d9d)"><g clip-path="url(#996d6c7328)"><path fill="#f4f6fc" d="M 95.652344 124.550781 L 127.933594 124.550781 L 127.933594 156.832031 L 95.652344 156.832031 Z M 95.652344 124.550781 " fill-opacity="1" fill-rule="nonzero"/></g></g><g clip-path="url(#437a83918c)"><g clip-path="url(#bbc734efa5)"><path fill="#000000" d="M 101.648438 130.855469 L 121.628906 130.855469 L 121.628906 150.835938 L 101.648438 150.835938 Z M 101.648438 130.855469 " fill-opacity="1" fill-rule="nonzero"/></g></g><g clip-path="url(#d283933556)"><path fill="#000000" d="M 128.46875 145.820312 L 163.117188 145.820312 L 163.117188 376.441406 L 128.46875 376.441406 Z M 128.46875 145.820312 " fill-opacity="1" fill-rule="nonzero"/></g></svg>